<?xml version="1.0" encoding="utf-8" standalone="no"?>
<!DOCTYPE svg PUBLIC "-//W3C//DTD SVG 1.1//EN"
  "http://www.w3.org/Graphics/SVG/1.1/DTD/svg11.dtd">
<svg xmlns:xlink="http://www.w3.org/1999/xlink" width="266.495994pt" height="172.003598pt" viewBox="0 0 266.495994 172.003598" xmlns="http://www.w3.org/2000/svg" version="1.1">
 <metadata>
  <rdf:RDF xmlns:dc="http://purl.org/dc/elements/1.1/" xmlns:cc="http://creativecommons.org/ns#" xmlns:rdf="http://www.w3.org/1999/02/22-rdf-syntax-ns#">
   <cc:Work>
    <dc:type rdf:resource="http://purl.org/dc/dcmitype/StillImage"/>
    <dc:date>2024-08-23T15:06:38.819780</dc:date>
    <dc:format>image/svg+xml</dc:format>
    <dc:creator>
     <cc:Agent>
      <dc:title>Matplotlib v3.9.0, https://matplotlib.org/</dc:title>
     </cc:Agent>
    </dc:creator>
   </cc:Work>
  </rdf:RDF>
 </metadata>
 <defs>
  <style type="text/css">*{stroke-linejoin: round; stroke-linecap: butt}</style>
 </defs>
 <g id="figure_1">
  <g id="patch_1">
   <path d="M 0 172.003598 
L 266.495994 172.003598 
L 266.495994 0 
L 0 0 
z
" style="fill: #ffffff"/>
  </g>
  <g id="axes_1">
   <g id="line2d_1">
    <path d="M 64.609196 44.2832 
L 254.660594 44.2832 
" clip-path="url(#p6b992eae7e)" style="fill: none; stroke: #000000; stroke-width: 2; stroke-linecap: square"/>
   </g>
   <g id="line2d_2">
    <path d="M 64.609196 90.637199 
L 254.660594 90.637199 
" clip-path="url(#p6b992eae7e)" style="fill: none; stroke: #000000; stroke-width: 2; stroke-linecap: square"/>
   </g>
   <g id="line2d_3">
    <path d="M 64.609196 136.991198 
L 254.660594 136.991198 
" clip-path="url(#p6b992eae7e)" style="fill: none; stroke: #000000; stroke-width: 2; stroke-linecap: square"/>
   </g>
   <g id="patch_2">
    <path d="M 59.973797 21.1062 
L -1098.876188 21.1062 
L -1098.876188 206.522197 
L 59.973797 206.522197 
z
" clip-path="url(#p6b992eae7e)" style="fill: #ffffff; stroke: #ffffff; stroke-width: 1.5; stroke-linejoin: miter"/>
   </g>
   <g id="line2d_4">
    <path d="M 135.994356 90.637199 
L 135.994356 44.2832 
" clip-path="url(#p6b992eae7e)" style="fill: none; stroke: #002d9c; stroke-width: 2; stroke-linecap: square"/>
   </g>
   <g id="line2d_5">
    <path d="M 182.348355 136.991198 
L 182.348355 90.637199 
" clip-path="url(#p6b992eae7e)" style="fill: none; stroke: #002d9c; stroke-width: 2; stroke-linecap: square"/>
   </g>
   <g id="patch_3">
    <path d="M 74.575306 59.348249 
L 104.705406 59.348249 
L 104.705406 29.21815 
L 74.575306 29.21815 
z
" clip-path="url(#p6b992eae7e)" style="fill: #fa4d56; stroke: #fa4d56; stroke-width: 1.5; stroke-linejoin: miter"/>
   </g>
   <g id="patch_4">
    <path d="M 74.575306 105.702249 
L 104.705406 105.702249 
L 104.705406 75.572149 
L 74.575306 75.572149 
z
" clip-path="url(#p6b992eae7e)" style="fill: #002d9c; stroke: #002d9c; stroke-width: 1.5; stroke-linejoin: miter"/>
   </g>
   <g id="patch_5">
    <path d="M 74.575306 152.056248 
L 104.705406 152.056248 
L 104.705406 121.926148 
L 74.575306 121.926148 
z
" clip-path="url(#p6b992eae7e)" style="fill: #33b1ff; stroke: #33b1ff; stroke-width: 1.5; stroke-linejoin: miter"/>
   </g>
   <g id="patch_6">
    <path d="M 135.994356 48.802714 
C 137.192945 48.802714 138.342605 48.32651 139.190135 47.478979 
C 140.037666 46.631448 140.51387 45.481789 140.51387 44.2832 
C 140.51387 43.08461 140.037666 41.934951 139.190135 41.08742 
C 138.342605 40.239889 137.192945 39.763685 135.994356 39.763685 
C 134.795766 39.763685 133.646107 40.239889 132.798576 41.08742 
C 131.951045 41.934951 131.474841 43.08461 131.474841 44.2832 
C 131.474841 45.481789 131.951045 46.631448 132.798576 47.478979 
C 133.646107 48.32651 134.795766 48.802714 135.994356 48.802714 
z
" clip-path="url(#p6b992eae7e)" style="fill: #002d9c; stroke: #002d9c; stroke-width: 1.5; stroke-linejoin: miter"/>
   </g>
   <g id="patch_7">
    <path d="M 135.994356 101.182734 
C 138.791064 101.182734 141.473603 100.07159 143.451175 98.094018 
C 145.428746 96.116447 146.53989 93.433907 146.53989 90.637199 
C 146.53989 87.84049 145.428746 85.157951 143.451175 83.18038 
C 141.473603 81.202808 138.791064 80.091664 135.994356 80.091664 
C 133.197647 80.091664 130.515108 81.202808 128.537536 83.18038 
C 126.559965 85.157951 125.448821 87.84049 125.448821 90.637199 
C 125.448821 93.433907 126.559965 96.116447 128.537536 98.094018 
C 130.515108 100.07159 133.197647 101.182734 135.994356 101.182734 
z
" clip-path="url(#p6b992eae7e)" style="fill: #002d9c; stroke: #002d9c; stroke-width: 2; stroke-linejoin: miter"/>
   </g>
   <g id="patch_8">
    <path d="M 182.348355 95.156714 
C 183.546944 95.156714 184.696604 94.680509 185.544135 93.832979 
C 186.391665 92.985448 186.86787 91.835788 186.86787 90.637199 
C 186.86787 89.43861 186.391665 88.28895 185.544135 87.441419 
C 184.696604 86.593889 183.546944 86.117684 182.348355 86.117684 
C 181.149766 86.117684 180.000106 86.593889 179.152575 87.441419 
C 178.305045 88.28895 177.82884 89.43861 177.82884 90.637199 
C 177.82884 91.835788 178.305045 92.985448 179.152575 93.832979 
C 180.000106 94.680509 181.149766 95.156714 182.348355 95.156714 
z
" clip-path="url(#p6b992eae7e)" style="fill: #002d9c; stroke: #002d9c; stroke-width: 1.5; stroke-linejoin: miter"/>
   </g>
   <g id="patch_9">
    <path d="M 182.348355 147.536733 
C 185.145063 147.536733 187.827603 146.425589 189.805174 144.448017 
C 191.782746 142.470446 192.89389 139.787907 192.89389 136.991198 
C 192.89389 134.19449 191.782746 131.511951 189.805174 129.534379 
C 187.827603 127.556807 185.145063 126.445663 182.348355 126.445663 
C 179.551646 126.445663 176.869107 127.556807 174.891536 129.534379 
C 172.913964 131.511951 171.80282 134.19449 171.80282 136.991198 
C 171.80282 139.787907 172.913964 142.470446 174.891536 144.448017 
C 176.869107 146.425589 179.551646 147.536733 182.348355 147.536733 
z
" clip-path="url(#p6b992eae7e)" style="fill: #002d9c; stroke: #002d9c; stroke-width: 2; stroke-linejoin: miter"/>
   </g>
   <g id="patch_10">
    <path d="M 213.637304 105.702249 
L 243.767404 105.702249 
L 243.767404 75.572149 
L 213.637304 75.572149 
z
" clip-path="url(#p6b992eae7e)" style="fill: #33b1ff; stroke: #33b1ff; stroke-width: 1.5; stroke-linejoin: miter"/>
   </g>
   <g id="line2d_6">
    <path d="M 135.994356 96.663219 
L 135.994356 84.611179 
" clip-path="url(#p6b992eae7e)" style="fill: none; stroke: #ffffff; stroke-width: 2; stroke-linecap: square"/>
   </g>
   <g id="line2d_7">
    <path d="M 129.968336 90.637199 
L 142.020375 90.637199 
" clip-path="url(#p6b992eae7e)" style="fill: none; stroke: #ffffff; stroke-width: 2; stroke-linecap: square"/>
   </g>
   <g id="line2d_8">
    <path d="M 182.348355 143.017218 
L 182.348355 130.965178 
" clip-path="url(#p6b992eae7e)" style="fill: none; stroke: #ffffff; stroke-width: 2; stroke-linecap: square"/>
   </g>
   <g id="line2d_9">
    <path d="M 176.322335 136.991198 
L 188.374375 136.991198 
" clip-path="url(#p6b992eae7e)" style="fill: none; stroke: #ffffff; stroke-width: 2; stroke-linecap: square"/>
   </g>
   <g id="text_1">
    <g clip-path="url(#p6b992eae7e)">
     <!-- ${q}_{0}$ -->
     <g transform="translate(37.300897 48.734176) scale(0.1625 -0.1625)">
      <defs>
       <path id="DejaVuSans-Oblique-71" d="M 2669 525 
Q 2438 222 2123 65 
Q 1809 -91 1428 -91 
Q 897 -91 595 267 
Q 294 625 294 1253 
Q 294 1759 480 2231 
Q 666 2703 1013 3078 
Q 1238 3322 1530 3453 
Q 1822 3584 2144 3584 
Q 2531 3584 2781 3431 
Q 3031 3278 3144 2969 
L 3244 3494 
L 3822 3494 
L 2888 -1319 
L 2309 -1319 
L 2669 525 
z
M 891 1338 
Q 891 875 1084 633 
Q 1278 391 1644 391 
Q 2188 391 2572 911 
Q 2956 1431 2956 2175 
Q 2956 2625 2757 2864 
Q 2559 3103 2188 3103 
Q 1916 3103 1684 2976 
Q 1453 2850 1281 2606 
Q 1100 2350 995 2006 
Q 891 1663 891 1338 
z
" transform="scale(0.015625)"/>
       <path id="DejaVuSans-30" d="M 2034 4250 
Q 1547 4250 1301 3770 
Q 1056 3291 1056 2328 
Q 1056 1369 1301 889 
Q 1547 409 2034 409 
Q 2525 409 2770 889 
Q 3016 1369 3016 2328 
Q 3016 3291 2770 3770 
Q 2525 4250 2034 4250 
z
M 2034 4750 
Q 2819 4750 3233 4129 
Q 3647 3509 3647 2328 
Q 3647 1150 3233 529 
Q 2819 -91 2034 -91 
Q 1250 -91 836 529 
Q 422 1150 422 2328 
Q 422 3509 836 4129 
Q 1250 4750 2034 4750 
z
" transform="scale(0.015625)"/>
      </defs>
      <use xlink:href="#DejaVuSans-Oblique-71"/>
      <use xlink:href="#DejaVuSans-30" transform="translate(63.476562 -16.40625) scale(0.7)"/>
     </g>
    </g>
   </g>
   <g id="text_2">
    <g clip-path="url(#p6b992eae7e)">
     <!-- ${q}_{1}$ -->
     <g transform="translate(37.300897 95.088175) scale(0.1625 -0.1625)">
      <defs>
       <path id="DejaVuSans-31" d="M 794 531 
L 1825 531 
L 1825 4091 
L 703 3866 
L 703 4441 
L 1819 4666 
L 2450 4666 
L 2450 531 
L 3481 531 
L 3481 0 
L 794 0 
L 794 531 
z
" transform="scale(0.015625)"/>
      </defs>
      <use xlink:href="#DejaVuSans-Oblique-71"/>
      <use xlink:href="#DejaVuSans-31" transform="translate(63.476562 -16.40625) scale(0.7)"/>
     </g>
    </g>
   </g>
   <g id="text_3">
    <g clip-path="url(#p6b992eae7e)">
     <!-- ${q}_{2}$ -->
     <g transform="translate(37.300897 141.442175) scale(0.1625 -0.1625)">
      <defs>
       <path id="DejaVuSans-32" d="M 1228 531 
L 3431 531 
L 3431 0 
L 469 0 
L 469 531 
Q 828 903 1448 1529 
Q 2069 2156 2228 2338 
Q 2531 2678 2651 2914 
Q 2772 3150 2772 3378 
Q 2772 3750 2511 3984 
Q 2250 4219 1831 4219 
Q 1534 4219 1204 4116 
Q 875 4013 500 3803 
L 500 4441 
Q 881 4594 1212 4672 
Q 1544 4750 1819 4750 
Q 2544 4750 2975 4387 
Q 3406 4025 3406 3419 
Q 3406 3131 3298 2873 
Q 3191 2616 2906 2266 
Q 2828 2175 2409 1742 
Q 1991 1309 1228 531 
z
" transform="scale(0.015625)"/>
      </defs>
      <use xlink:href="#DejaVuSans-Oblique-71"/>
      <use xlink:href="#DejaVuSans-32" transform="translate(63.476562 -16.40625) scale(0.7)"/>
     </g>
    </g>
   </g>
   <g id="text_4">
    <g clip-path="url(#p6b992eae7e)">
     <!-- H -->
     <g transform="translate(84.752153 47.870387) scale(0.13 -0.13)">
      <defs>
       <path id="DejaVuSans-48" d="M 628 4666 
L 1259 4666 
L 1259 2753 
L 3553 2753 
L 3553 4666 
L 4184 4666 
L 4184 0 
L 3553 0 
L 3553 2222 
L 1259 2222 
L 1259 0 
L 628 0 
L 628 4666 
z
" transform="scale(0.015625)"/>
      </defs>
      <use xlink:href="#DejaVuSans-48"/>
     </g>
    </g>
   </g>
   <g id="text_5">
    <g clip-path="url(#p6b992eae7e)">
     <!-- X -->
     <g style="fill: #ffffff" transform="translate(85.187856 94.224386) scale(0.13 -0.13)">
      <defs>
       <path id="DejaVuSans-58" d="M 403 4666 
L 1081 4666 
L 2241 2931 
L 3406 4666 
L 4084 4666 
L 2584 2425 
L 4184 0 
L 3506 0 
L 2194 1984 
L 872 0 
L 191 0 
L 1856 2491 
L 403 4666 
z
" transform="scale(0.015625)"/>
      </defs>
      <use xlink:href="#DejaVuSans-58"/>
     </g>
    </g>
   </g>
   <g id="text_6">
    <g clip-path="url(#p6b992eae7e)">
     <!-- S -->
     <g transform="translate(85.513872 140.578386) scale(0.13 -0.13)">
      <defs>
       <path id="DejaVuSans-53" d="M 3425 4513 
L 3425 3897 
Q 3066 4069 2747 4153 
Q 2428 4238 2131 4238 
Q 1616 4238 1336 4038 
Q 1056 3838 1056 3469 
Q 1056 3159 1242 3001 
Q 1428 2844 1947 2747 
L 2328 2669 
Q 3034 2534 3370 2195 
Q 3706 1856 3706 1288 
Q 3706 609 3251 259 
Q 2797 -91 1919 -91 
Q 1588 -91 1214 -16 
Q 841 59 441 206 
L 441 856 
Q 825 641 1194 531 
Q 1563 422 1919 422 
Q 2459 422 2753 634 
Q 3047 847 3047 1241 
Q 3047 1584 2836 1778 
Q 2625 1972 2144 2069 
L 1759 2144 
Q 1053 2284 737 2584 
Q 422 2884 422 3419 
Q 422 4038 858 4394 
Q 1294 4750 2059 4750 
Q 2388 4750 2728 4690 
Q 3069 4631 3425 4513 
z
" transform="scale(0.015625)"/>
      </defs>
      <use xlink:href="#DejaVuSans-53"/>
     </g>
    </g>
   </g>
   <g id="text_7">
    <g clip-path="url(#p6b992eae7e)">
     <!-- Z -->
     <g transform="translate(224.249854 94.224386) scale(0.13 -0.13)">
      <defs>
       <path id="DejaVuSans-5a" d="M 359 4666 
L 4025 4666 
L 4025 4184 
L 1075 531 
L 4097 531 
L 4097 0 
L 288 0 
L 288 481 
L 3238 4134 
L 359 4134 
L 359 4666 
z
" transform="scale(0.015625)"/>
      </defs>
      <use xlink:href="#DejaVuSans-5a"/>
     </g>
    </g>
   </g>
  </g>
 </g>
 <defs>
  <clipPath id="p6b992eae7e">
   <rect x="7.2" y="7.2" width="252.095994" height="157.603598"/>
  </clipPath>
 </defs>
</svg>
